<svg id="Layer_1" data-name="Layer 1" xmlns="http://www.w3.org/2000/svg" xmlns:xlink="http://www.w3.org/1999/xlink" viewBox="0 0 496.02 500.12"><defs><style>.cls-1,.cls-4{fill:none;}.cls-1{stroke:#00aeef;stroke-width:5px;}.cls-1,.cls-2,.cls-4,.cls-5{stroke-miterlimit:10;}.cls-2{fill:#808285;opacity:0.2;stroke:url(#linear-gradient);}.cls-2,.cls-4{stroke-width:27px;}.cls-2,.cls-3,.cls-4{isolation:isolate;}.cls-3,.cls-4{font-size:338.24px;font-family:ArialMT, Arial;letter-spacing:0.02em;}.cls-4{stroke:#808285;}.cls-5{fill:#6d6e71;stroke:#939598;stroke-width:8px;}</style><linearGradient id="linear-gradient" x1="59.59" y1="466.29" x2="503.52" y2="466.29" gradientTransform="matrix(0.99, 0.11, 0.11, -0.99, -37.39, 741.31)" gradientUnits="userSpaceOnUse"><stop offset="0" stop-color="#fff"/><stop offset="1"/></linearGradient></defs><line class="cls-1" y1="204.48" y2="204.48"/><path class="cls-2" d="M281.69,307.59,103.84,176.75a221,221,0,0,1,202.23-88.6C426.45,101.53,514.5,211.59,501.12,332S377.68,540.4,257.3,527A220.84,220.84,0,0,1,122,460.07Z" transform="translate(-41.09 -73.3)"/><text class="cls-3" transform="matrix(0.96, 0.11, 0.06, 1, 251.31, 350.84)">S</text><text class="cls-4" transform="matrix(0.96, 0.11, 0.06, 1, 251.31, 350.84)">S</text><path class="cls-5" d="M267.1,434.39c.06-30.7-19-64.09-46.63-86.49a124.31,124.31,0,0,0-31.67-18.85c-1.3-.53-2.6-1-3.91-1.5a92.8,92.8,0,0,0-21.24-5v-4.37a112.55,112.55,0,0,0,17.37,8c2.62.94,5.22,1.75,7.77,2.44,11.44,3.08,22.18,3.64,31.7,2v-.45l.81.3c23.77-4.46,39.77-22.89,39.83-50.54.06-28-16.22-58.22-40.38-79.8a124.19,124.19,0,0,0-31.67-20.78c-2.55-1.15-5.15-2.21-7.77-3.15a92.09,92.09,0,0,0-17.38-4.46c-13.74-2.08-26.15-.37-36.24,4.55l-.52,263.29a137.18,137.18,0,0,0,36.17,32.31l.24-118.8a116.7,116.7,0,0,1,25.14,12.77A139,139,0,0,1,220.38,395c15.67,19.74,25.46,43.09,25.42,64.89a60.77,60.77,0,0,1-3.5,20.79C257.56,472.14,267.05,456,267.1,434.39ZM175.24,200.88a72,72,0,0,1,13.8,6.76,85.63,85.63,0,0,1,31.64,35.59,57.8,57.8,0,0,1,5.77,24.19c0,7.95-2.13,14.72-5.86,20-6.53,9.33-18,14.13-31.73,12.84a56.52,56.52,0,0,1-13.81-3.16Z" transform="translate(-41.09 -73.3)"/></svg>