<svg xmlns="http://www.w3.org/2000/svg" viewBox="0 0 496.02 500.14"><defs><style>.cls-1,.cls-2,.cls-3,.cls-4,.cls-5{fill:#fff;stroke:#234fa2;stroke-miterlimit:10;}.cls-1{stroke-width:5px;}.cls-2,.cls-4{stroke-width:27px;}.cls-2,.cls-3,.cls-4{isolation:isolate;}.cls-2{opacity:0.2;}.cls-3,.cls-4{font-size:338.24px;font-family:ArialMT, Arial;letter-spacing:0.02em;}.cls-5{stroke-width:8px;}</style></defs><g id="Layer_2" data-name="Layer 2"><g id="Layer_1-2" data-name="Layer 1"><line class="cls-1" y1="204.48" y2="204.48"/><path class="cls-2" d="M240.6,234.29,62.75,103.45A221,221,0,0,1,265,14.85C385.36,28.23,473.41,138.29,460,258.67S336.59,467.1,216.21,453.72a220.84,220.84,0,0,1-135.29-67Z"/><text class="cls-3" transform="matrix(0.96, 0.11, 0.06, 1, 251.31, 350.86)">S</text><text class="cls-4" transform="matrix(0.96, 0.11, 0.06, 1, 251.31, 350.86)">S</text><path class="cls-5" d="M226,361.09c.06-30.7-19-64.09-46.63-86.49a124.31,124.31,0,0,0-31.67-18.85c-1.3-.53-2.6-1-3.91-1.5a92.8,92.8,0,0,0-21.24-5v-4.37a112.55,112.55,0,0,0,17.37,8c2.62.94,5.22,1.75,7.77,2.44,11.44,3.08,22.18,3.64,31.7,2v-.45l.81.3C204,252.68,220,234.25,220.05,206.6c.06-28-16.22-58.22-40.38-79.8A124.19,124.19,0,0,0,148,106c-2.55-1.15-5.15-2.21-7.77-3.15a92.09,92.09,0,0,0-17.38-4.46C109.11,96.33,96.7,98,86.61,103l-.52,263.29a137.18,137.18,0,0,0,36.17,32.31l.24-118.8a116.7,116.7,0,0,1,25.14,12.77,139,139,0,0,1,31.65,29.19c15.67,19.74,25.46,43.09,25.42,64.89a60.77,60.77,0,0,1-3.5,20.79C216.47,398.84,226,382.69,226,361.09ZM134.15,127.58a72,72,0,0,1,13.8,6.76,85.63,85.63,0,0,1,31.64,35.59,57.8,57.8,0,0,1,5.77,24.19c0,7.95-2.13,14.72-5.86,20-6.53,9.33-18,14.13-31.73,12.84A56.52,56.52,0,0,1,134,223.82Z"/></g></g></svg>